<svg version="1.1" id="Layer_1" xmlns="http://www.w3.org/2000/svg" xmlns:xlink="http://www.w3.org/1999/xlink" x="0px" y="0px"
	 width="100%" viewBox="0 0 221 228" enable-background="new 0 0 221 228" xml:space="preserve">
<path fill="#FEFEFE" opacity="1.000000" stroke="none" 
	d="
M222.000000,87.000000 
	C222.000000,134.666672 222.000000,181.833328 222.000000,229.000000 
	C148.333328,229.000000 74.666664,229.000000 1.000000,229.000000 
	C1.000000,153.000000 1.000000,77.000000 1.000000,1.000000 
	C74.666664,1.000000 148.333328,1.000000 222.000000,1.000000 
	C222.000000,29.500000 222.000000,58.000000 222.000000,87.000000 
M79.950851,191.928192 
	C79.950851,191.928192 80.035004,191.999924 80.071686,192.658310 
	C80.701172,192.803375 81.330650,192.948441 82.486610,193.669312 
	C85.247810,194.485260 88.038872,195.212708 90.764977,196.132660 
	C101.961555,199.911026 113.436707,199.938263 125.817093,198.854797 
	C132.379486,196.955765 138.941864,195.056747 146.018188,192.737625 
	C146.634506,192.222244 147.170258,191.460526 147.879288,191.228668 
	C157.548492,188.066818 166.202301,183.181595 173.224060,175.781326 
	C175.259567,173.636093 176.498352,170.734879 178.745743,167.919708 
	C180.110077,166.286194 181.474411,164.652679 182.973114,162.566162 
	C182.973114,162.566162 183.036148,162.097885 183.750809,162.020370 
	C184.972977,160.788422 186.718628,159.772797 187.331711,158.289154 
	C191.098679,149.173264 194.971252,140.069931 198.034454,130.709076 
	C199.326965,126.759277 198.734085,122.192513 199.078461,117.081490 
	C199.402390,115.146980 200.047119,113.204559 199.999588,111.279221 
	C199.613770,95.655136 195.012589,81.306137 187.215256,67.780357 
	C182.117966,58.938210 175.386276,51.382408 167.674561,45.208363 
	C161.456970,40.230515 153.339081,37.626236 145.900253,33.470798 
	C145.599152,33.331097 145.298035,33.191391 144.452728,32.873470 
	C144.072281,32.877998 143.691818,32.882526 142.870331,32.284321 
	C137.457886,30.836477 132.086731,29.194738 126.614098,28.029520 
	C124.186302,27.512604 121.553482,27.958559 118.659401,27.161514 
	C110.271797,27.810724 101.627281,27.420382 93.571289,29.411364 
	C86.023453,31.276758 79.098740,35.663460 71.982117,38.975975 
	C71.982117,38.975975 71.941101,38.896339 71.255569,38.967159 
	C69.723991,39.983006 68.192421,40.998852 66.002625,42.344131 
	C55.270424,49.559383 45.835064,58.178917 39.693306,69.648590 
	C36.233990,76.108841 33.706455,83.148514 31.427900,90.144958 
	C25.382994,108.706207 26.793289,127.037674 33.971130,145.765213 
	C37.928658,152.532944 41.886181,159.300690 46.122410,166.685913 
	C49.089329,169.791824 52.056244,172.897751 55.237732,176.517593 
	C55.704746,176.803879 56.171764,177.090179 57.000763,177.001831 
	C56.879662,177.126099 56.758564,177.250366 56.932091,177.967239 
	C60.467232,180.681595 63.809650,183.713669 67.597549,186.011337 
	C70.715858,187.902878 74.362411,188.923553 78.252914,191.074890 
	C78.547630,191.062347 78.842339,191.049805 79.447792,191.280014 
	C79.646690,191.454895 79.835068,191.640442 79.950851,191.928192 
M167.941177,37.166409 
	C167.677902,38.311226 167.004379,40.361168 167.216446,40.457291 
	C168.873367,41.208282 170.700378,41.584023 172.474884,42.075603 
	C172.769760,41.370972 173.064636,40.666340 173.359512,39.961708 
	C171.801666,38.990803 170.243820,38.019897 167.941177,37.166409 
z"/>
<path fill="#011361" opacity="1.000000" stroke="none" 
	d="
M183.036163,162.097885 
	C183.036148,162.097885 182.973114,162.566162 182.605026,162.964462 
	C180.858749,164.968597 179.480576,166.574417 178.102386,168.180237 
	C176.498352,170.734879 175.259567,173.636093 173.224060,175.781326 
	C166.202301,183.181595 157.548492,188.066818 147.879288,191.228668 
	C147.170258,191.460526 146.634506,192.222244 145.280243,192.905396 
	C137.284073,192.432770 131.150482,195.629349 125.008835,198.798447 
	C113.436707,199.938263 101.961555,199.911026 90.764977,196.132660 
	C88.038872,195.212708 85.247810,194.485260 82.080978,193.120209 
	C81.128563,192.380722 80.581787,192.190323 80.035004,191.999908 
	C80.035004,191.999924 79.950851,191.928192 79.882477,191.702530 
	C79.639732,191.251297 79.414047,191.104752 79.137054,191.037262 
	C78.842339,191.049805 78.547630,191.062347 77.826691,190.492188 
	C71.717224,185.916138 66.075768,181.860519 60.308792,177.992004 
	C59.369579,177.362000 57.875233,177.559570 56.637470,177.374634 
	C56.758564,177.250366 56.879662,177.126099 56.845936,176.915466 
	C56.469406,176.551300 56.247707,176.273483 56.010700,175.629181 
	C53.012871,172.171753 50.030346,169.080856 47.035980,165.609253 
	C46.960106,164.575226 47.097363,163.807449 46.800980,163.286270 
	C43.769093,157.954620 40.756077,152.607346 37.511585,147.405518 
	C36.832489,146.316727 35.227558,145.805389 34.049267,145.027954 
	C26.793289,127.037674 25.382994,108.706207 31.427900,90.144958 
	C33.706455,83.148514 36.233990,76.108841 39.693306,69.648590 
	C45.835064,58.178917 55.270424,49.559383 66.468864,42.546299 
	C71.367424,45.055912 70.931419,41.036758 71.941101,38.896339 
	C71.941101,38.896339 71.982117,38.975975 72.348236,38.970634 
	C77.117897,37.325665 81.464371,35.504826 85.940277,34.094883 
	C90.897850,32.533215 95.973770,31.347219 100.999077,29.998814 
	C101.000000,30.000000 101.002335,30.001799 101.006104,30.255535 
	C101.022064,30.847403 101.034256,31.185534 100.728119,31.713974 
	C99.277946,32.377697 98.146103,32.851116 96.679657,33.388805 
	C92.541496,35.589874 88.737946,37.726673 84.612396,39.974678 
	C81.845543,42.034145 79.400688,43.982407 76.645706,46.056015 
	C73.878510,48.767056 71.421448,51.352741 68.665352,54.095367 
	C65.399796,59.027420 62.433270,63.802540 59.281631,68.784882 
	C59.216118,69.478195 59.335709,69.964294 59.549370,70.482773 
	C59.643436,70.515160 59.650345,70.316315 59.282181,70.348679 
	C57.585907,73.217003 56.257797,76.052963 54.679760,79.163345 
	C53.667557,82.622742 52.905277,85.807724 52.055756,89.407143 
	C51.685963,95.529823 51.403412,101.238060 51.081161,107.379585 
	C52.939491,115.349670 54.837521,122.886475 56.776161,130.774368 
	C58.009655,133.766022 59.202538,136.406586 60.395424,139.047150 
	C61.035191,138.823441 61.674957,138.599731 62.314724,138.376038 
	C61.766373,135.237320 61.218021,132.098618 60.707653,128.555756 
	C61.102154,122.413361 61.458672,116.675133 61.939896,110.583549 
	C62.451160,108.557724 62.837715,106.885254 63.146790,105.204475 
	C63.069309,105.196159 63.223305,105.172432 63.543129,105.069885 
	C65.095192,102.723442 66.327431,100.479546 67.697281,98.064339 
	C67.949615,97.622574 68.038383,97.343864 68.351974,96.903519 
	C68.785576,96.201988 68.968399,95.653839 69.154724,95.123566 
	C69.158234,95.141441 69.189507,95.165154 69.517601,95.108582 
	C71.313683,93.585464 72.781670,92.118927 74.570938,90.496429 
	C77.587669,88.534172 80.283119,86.727875 83.341263,84.873787 
	C88.140564,83.442116 92.577179,82.058235 97.372284,80.693451 
	C99.153893,80.481567 100.577019,80.250587 102.405960,80.086288 
	C106.884354,80.732559 110.956955,81.312149 115.336884,82.078461 
	C129.857407,87.157578 138.802811,97.196419 143.835876,111.420540 
	C143.987137,112.179955 144.106461,112.607536 144.214127,113.330994 
	C144.418182,113.941559 144.633911,114.256248 144.790161,114.968704 
	C144.898788,117.244476 145.066895,119.122490 145.175964,121.451736 
	C144.552521,126.572166 143.988129,131.241364 143.273605,136.167465 
	C142.724045,137.575562 142.324600,138.726730 141.666794,140.103500 
	C138.619720,144.591049 135.831024,148.852997 132.740509,153.238800 
	C130.288620,155.209686 128.138550,157.056686 125.632690,158.963837 
	C119.867554,161.067093 114.458199,163.110214 108.601837,165.114471 
	C105.782791,165.179352 103.410751,165.283096 100.605980,165.281799 
	C96.476540,164.628281 92.779816,164.079819 88.862808,163.298706 
	C86.307503,162.059235 83.972488,161.052460 81.637466,160.045685 
	C81.278526,160.643509 80.919586,161.241333 80.560654,161.839157 
	C83.050919,163.538528 85.541191,165.237900 88.330025,167.120178 
	C92.757248,169.157944 96.885902,171.012817 101.374916,172.980637 
	C106.835007,174.265076 111.934731,175.436584 117.488678,176.717377 
	C125.298363,176.456177 132.653839,176.085709 140.367767,175.730515 
	C142.483002,175.160889 144.239761,174.576004 146.382507,173.991226 
	C151.960632,171.709885 157.152740,169.428436 162.660583,167.089111 
	C164.342514,166.083603 165.708725,165.135956 167.398193,164.098038 
	C169.546738,162.523209 171.372040,161.038681 173.468216,159.331909 
	C175.147156,158.059692 176.555206,157.009674 178.344330,156.012054 
	C180.393570,156.586975 182.061737,157.109528 183.920074,157.691635 
	C183.598389,159.295166 183.317276,160.696533 183.036163,162.097885 
z"/>
<path fill="#77A4F9" opacity="1.000000" stroke="none" 
	d="
M146.064270,33.968906 
	C153.339081,37.626236 161.456970,40.230515 167.674561,45.208363 
	C175.386276,51.382408 182.117966,58.938210 187.215256,67.780357 
	C195.012589,81.306137 199.613770,95.655136 199.999588,111.279221 
	C200.047119,113.204559 199.402390,115.146980 198.770142,117.733528 
	C197.911011,120.250549 197.360214,122.115532 196.534195,123.959030 
	C195.838913,123.624428 195.418854,123.311302 195.038345,122.633255 
	C195.384857,120.845749 195.691818,119.423180 195.999512,117.571892 
	C194.566635,112.170059 193.848846,106.827271 191.519394,102.316818 
	C188.565872,96.597946 180.775757,94.044090 180.457138,86.296074 
	C180.442398,85.937759 179.751846,85.638596 179.445557,85.256210 
	C174.807907,79.466454 170.155655,73.687805 165.597305,67.836082 
	C165.181686,67.302528 165.085022,66.161476 165.353027,65.515182 
	C166.679214,62.317173 164.501434,61.522247 162.434372,59.824490 
	C158.030899,56.207748 152.563904,52.508781 150.661911,47.624882 
	C148.888428,43.071014 148.907440,37.785938 145.265945,33.995369 
	C145.709579,33.984333 145.886932,33.976620 146.064270,33.968906 
z"/>
<path fill="#709FF9" opacity="1.000000" stroke="none" 
	d="
M144.999680,33.998695 
	C148.907440,37.785938 148.888428,43.071014 150.661911,47.624882 
	C152.563904,52.508781 158.030899,56.207748 162.434372,59.824490 
	C164.501434,61.522247 166.679214,62.317173 165.353027,65.515182 
	C165.085022,66.161476 165.181686,67.302528 165.597305,67.836082 
	C170.155655,73.687805 174.807907,79.466454 179.445557,85.256210 
	C179.751846,85.638596 180.442398,85.937759 180.457138,86.296074 
	C180.775757,94.044090 188.565872,96.597946 191.519394,102.316818 
	C193.848846,106.827271 194.566635,112.170059 195.572723,117.571930 
	C190.214188,118.639915 186.655197,117.139137 185.383194,111.883232 
	C185.196381,111.111343 184.616821,110.417725 184.153687,109.731987 
	C176.125916,97.845444 168.113586,85.948303 160.035400,74.096069 
	C157.817276,70.841652 155.200317,67.848541 153.110977,64.519264 
	C149.634430,58.979519 146.964127,52.854343 142.979889,47.733910 
	C138.555206,42.047432 133.038910,37.210346 127.695343,31.871647 
	C126.265396,31.162964 125.138008,30.586075 124.436371,30.007553 
	C131.011871,30.966301 137.161621,31.926678 143.311371,32.887054 
	C143.691818,32.882526 144.072281,32.877998 144.724365,33.199028 
	C144.996017,33.524582 144.999680,33.998695 144.999680,33.998695 
z"/>
<path fill="#0D1A5D" opacity="1.000000" stroke="none" 
	d="
M196.809418,123.980515 
	C197.360214,122.115532 197.911011,120.250549 198.730011,118.145882 
	C198.734085,122.192513 199.326965,126.759277 198.034454,130.709076 
	C194.971252,140.069931 191.098679,149.173264 187.331711,158.289154 
	C186.718628,159.772797 184.972977,160.788422 183.393494,162.059128 
	C183.317276,160.696533 183.598389,159.295166 183.920074,157.691635 
	C182.061737,157.109528 180.393570,156.586975 178.466309,155.736008 
	C178.804810,154.605408 179.402405,153.803223 180.289520,152.861237 
	C181.647812,151.691406 182.716599,150.661377 183.943954,149.982635 
	C184.734726,151.565262 185.366928,152.796585 186.272232,154.559830 
	C189.454605,151.245148 189.239090,148.465393 186.883759,145.262421 
	C187.364120,143.989624 187.753296,143.020111 188.449341,141.905975 
	C190.218887,138.949036 191.681564,136.136734 193.395874,133.090485 
	C194.091492,131.571426 194.535477,130.286346 195.189194,128.733368 
	C195.869095,126.970497 196.339264,125.475510 196.809418,123.980515 
z"/>
<path fill="#0B1350" opacity="1.000000" stroke="none" 
	d="
M101.046440,31.523664 
	C101.034256,31.185534 101.022064,30.847403 101.144653,30.201351 
	C101.185677,29.928165 101.091919,29.962898 100.998154,29.997631 
	C95.973770,31.347219 90.897850,32.533215 85.940277,34.094883 
	C81.464371,35.504826 77.117897,37.325665 72.307083,38.952957 
	C79.098740,35.663460 86.023453,31.276758 93.571289,29.411364 
	C101.627281,27.420382 110.271797,27.810724 118.440063,27.597992 
	C116.104744,28.664722 113.988747,29.294971 111.538055,29.939125 
	C109.347687,30.261791 107.492020,30.570555 105.283386,30.864658 
	C103.618263,31.238142 102.306099,31.626289 101.039368,31.895199 
	C101.084801,31.775963 101.046440,31.523664 101.046440,31.523664 
z"/>
<path fill="#779AE1" opacity="1.000000" stroke="none" 
	d="
M111.872757,29.925219 
	C113.988747,29.294971 116.104744,28.664722 118.617233,28.000956 
	C121.553482,27.958559 124.186302,27.512604 126.614098,28.029520 
	C132.086731,29.194738 137.457886,30.836477 143.090851,32.585686 
	C137.161621,31.926678 131.011871,30.966301 124.182632,30.003914 
	C123.334091,30.001837 123.165024,30.001768 122.596970,30.000523 
	C121.134102,30.000753 120.070236,30.002159 118.605553,30.001272 
	C117.135887,30.000084 116.067024,30.001186 114.607193,29.999836 
	C113.435066,29.973326 112.653915,29.949272 111.872757,29.925219 
z"/>
<path fill="#0D144B" opacity="1.000000" stroke="none" 
	d="
M34.010201,145.396576 
	C35.227558,145.805389 36.832489,146.316727 37.511585,147.405518 
	C40.756077,152.607346 43.769093,157.954620 46.800980,163.286270 
	C47.097363,163.807449 46.960106,164.575226 46.734581,165.627563 
	C46.244579,166.040527 46.044140,166.054474 45.843704,166.068420 
	C41.886181,159.300690 37.928658,152.532944 34.010201,145.396576 
z"/>
<path fill="#141C4F" opacity="1.000000" stroke="none" 
	d="
M56.784782,177.670929 
	C57.875233,177.559570 59.369579,177.362000 60.308792,177.992004 
	C66.075768,181.860519 71.717224,185.916138 77.587662,190.119812 
	C74.362411,188.923553 70.715858,187.902878 67.597549,186.011337 
	C63.809650,183.713669 60.467232,180.681595 56.784782,177.670929 
z"/>
<path fill="#131B53" opacity="1.000000" stroke="none" 
	d="
M125.412964,198.826630 
	C131.150482,195.629349 137.284073,192.432770 145.023270,193.115433 
	C138.941864,195.056747 132.379486,196.955765 125.412964,198.826630 
z"/>
<path fill="#162054" opacity="1.000000" stroke="none" 
	d="
M45.983055,166.377167 
	C46.044140,166.054474 46.244579,166.040527 46.746422,166.008255 
	C50.030346,169.080856 53.012871,172.171753 55.759880,175.634201 
	C55.357296,176.005051 55.190228,176.004349 55.023163,176.003662 
	C52.056244,172.897751 49.089329,169.791824 45.983055,166.377167 
z"/>
<path fill="#FFFEF4" opacity="1.000000" stroke="none" 
	d="
M168.313568,37.107700 
	C170.243820,38.019897 171.801666,38.990803 173.359512,39.961708 
	C173.064636,40.666340 172.769760,41.370972 172.474884,42.075603 
	C170.700378,41.584023 168.873367,41.208282 167.216446,40.457291 
	C167.004379,40.361168 167.677902,38.311226 168.313568,37.107700 
z"/>
<path fill="#0B1350" opacity="1.000000" stroke="none" 
	d="
M71.598335,38.931747 
	C70.931419,41.036758 71.367424,45.055912 66.797974,42.381584 
	C68.192421,40.998852 69.723991,39.983006 71.598335,38.931747 
z"/>
<path fill="#0D1A5D" opacity="1.000000" stroke="none" 
	d="
M178.424072,168.049973 
	C179.480576,166.574417 180.858749,164.968597 182.537842,163.190948 
	C181.474411,164.652679 180.110077,166.286194 178.424072,168.049973 
z"/>
<path fill="#141C4F" opacity="1.000000" stroke="none" 
	d="
M55.130447,176.260620 
	C55.190228,176.004349 55.357296,176.005051 55.775185,176.000702 
	C56.247707,176.273483 56.469406,176.551300 56.664948,177.102783 
	C56.171764,177.090179 55.704746,176.803879 55.130447,176.260620 
z"/>
<path fill="#141C4F" opacity="1.000000" stroke="none" 
	d="
M80.053345,192.329102 
	C80.581787,192.190323 81.128563,192.380722 81.817734,192.832306 
	C81.330650,192.948441 80.701172,192.803375 80.053345,192.329102 
z"/>
<path fill="#779AE1" opacity="1.000000" stroke="none" 
	d="
M145.265945,33.995369 
	C144.999680,33.998695 144.996017,33.524582 144.996475,33.288136 
	C145.298035,33.191391 145.599152,33.331097 145.982269,33.719852 
	C145.886932,33.976620 145.709579,33.984333 145.265945,33.995369 
z"/>
<path fill="#141C4F" opacity="1.000000" stroke="none" 
	d="
M79.292419,191.158630 
	C79.414047,191.104752 79.639732,191.251297 79.913513,191.656769 
	C79.835068,191.640442 79.646690,191.454895 79.292419,191.158630 
z"/>
<path fill="#6292E7" opacity="1.000000" stroke="none" 
	d="
M97.014259,33.324539 
	C98.146103,32.851116 99.277946,32.377697 100.728119,31.713974 
	C101.046440,31.523664 101.084801,31.775963 101.041656,32.281204 
	C101.576157,34.272877 101.887230,35.947369 102.779350,37.211945 
	C105.993858,41.768532 109.807236,45.945961 112.655228,50.708622 
	C118.277824,60.111206 122.306061,70.484390 131.629547,77.380066 
	C135.102768,79.948868 138.775482,83.434250 140.218094,87.299965 
	C142.738678,94.054298 146.343750,99.820930 150.634521,105.482101 
	C155.683838,112.144081 160.136917,119.264297 164.732376,126.262100 
	C169.136398,132.968338 173.415924,139.757080 177.672256,146.558319 
	C178.068985,147.192261 177.904907,148.177170 177.632812,148.995178 
	C172.857437,144.099808 168.277969,139.349106 164.121307,134.253494 
	C162.236618,131.943069 161.073685,129.003128 159.788284,126.252953 
	C156.994888,120.276382 148.711456,118.263390 148.422302,110.368843 
	C148.391907,109.538780 146.193695,108.788116 144.994659,107.622856 
	C143.303665,103.825020 142.209732,99.884285 139.776413,97.124519 
	C137.095535,94.084000 136.885544,88.385193 131.081573,88.290550 
	C130.432724,88.279968 129.904678,86.765450 129.148483,86.165222 
	C127.718857,85.030472 126.193718,84.006805 124.651741,83.025841 
	C123.477722,82.278954 122.216324,81.669426 120.960403,80.650574 
	C114.543159,70.933998 108.190643,61.544060 101.761139,52.207134 
	C98.920898,48.082542 95.924553,44.065445 93.051010,39.662533 
	C94.368889,38.755730 95.634842,38.185940 97.014259,37.565075 
	C97.014259,36.189869 97.014259,34.757202 97.014259,33.324539 
z"/>
<path fill="#5C8BE0" opacity="1.000000" stroke="none" 
	d="
M92.999084,39.999542 
	C95.924553,44.065445 98.920898,48.082542 101.761139,52.207134 
	C108.190643,61.544060 114.543159,70.933998 120.561554,80.650986 
	C118.473930,81.296974 116.751740,81.594360 115.029549,81.891739 
	C110.956955,81.312149 106.884354,80.732559 102.443550,79.734322 
	C103.609810,77.966003 105.144272,76.616325 105.770752,76.065285 
	C98.414055,66.684570 90.797043,56.971931 82.726074,46.680443 
	C82.358284,46.808945 80.666252,47.400108 78.819672,47.741814 
	C78.095367,46.971790 77.525597,46.451225 76.955833,45.930664 
	C79.400688,43.982407 81.845543,42.034145 84.743805,40.279305 
	C86.197609,40.898857 87.261307,41.779842 88.184525,41.651375 
	C89.834053,41.421844 91.398857,40.583405 92.999084,39.999542 
z"/>
<path fill="#4D7BD0" opacity="1.000000" stroke="none" 
	d="
M59.650345,70.316315 
	C59.650345,70.316315 59.643436,70.515160 59.693947,70.378952 
	C59.744461,70.242752 60.002148,69.997139 60.170589,69.910461 
	C60.227112,69.550644 60.115192,69.277504 59.877563,68.887100 
	C59.751854,68.769829 59.466740,68.577660 59.466740,68.577660 
	C62.433270,63.802540 65.399796,59.027420 68.814270,54.434654 
	C68.811195,57.504757 68.360184,60.392502 68.085510,62.151154 
	C69.889877,63.333889 71.483871,64.218498 72.881836,65.346115 
	C73.986206,66.236916 75.050865,67.303436 75.785133,68.504654 
	C78.925034,73.641434 84.372643,77.795937 82.978577,84.921577 
	C80.283119,86.727875 77.587669,88.534172 74.503082,90.037117 
	C74.562660,86.362061 72.813431,84.464752 70.154594,82.587257 
	C65.682739,79.429535 60.748760,76.449440 59.650345,70.316315 
z"/>
<path fill="#5D8CE1" opacity="1.000000" stroke="none" 
	d="
M143.423721,135.910553 
	C143.988129,131.241364 144.552521,126.572166 145.519135,121.541580 
	C147.141525,123.147194 147.780045,125.627556 151.077789,125.299858 
	C152.038803,125.204361 153.437424,126.475739 154.155075,127.467995 
	C158.372147,133.298691 162.455734,139.226166 166.567017,145.133057 
	C169.635895,149.542267 172.527924,154.038925 173.197327,159.554138 
	C171.372040,161.038681 169.546738,162.523209 167.288727,163.801254 
	C165.971649,160.989304 165.553955,158.083206 164.108353,155.839340 
	C160.835648,150.759399 157.108459,145.966522 153.464523,141.133499 
	C150.978027,137.835602 147.899368,135.479141 143.423721,135.910553 
z"/>
<path fill="#5888DD" opacity="1.000000" stroke="none" 
	d="
M143.273605,136.167465 
	C147.899368,135.479141 150.978027,137.835602 153.464523,141.133499 
	C157.108459,145.966522 160.835648,150.759399 164.108353,155.839340 
	C165.553955,158.083206 165.971649,160.989304 166.965454,163.891541 
	C165.708725,165.135956 164.342514,166.083603 162.242004,167.037994 
	C160.178711,165.516479 158.849731,163.988205 157.390594,162.310257 
	C156.474182,162.751556 155.235611,163.347961 154.597595,163.655197 
	C152.879715,162.026993 151.291016,160.970139 150.310165,159.506058 
	C147.543121,155.375793 144.251328,151.319992 142.815674,146.720093 
	C142.289154,145.033096 143.934402,142.072342 141.925171,139.877899 
	C142.324600,138.726730 142.724045,137.575562 143.273605,136.167465 
z"/>
<path fill="#5787DC" opacity="1.000000" stroke="none" 
	d="
M78.974220,47.991272 
	C80.666252,47.400108 82.358284,46.808945 82.726074,46.680443 
	C90.797043,56.971931 98.414055,66.684570 105.770752,76.065285 
	C105.144272,76.616325 103.609810,77.966003 102.037750,79.667648 
	C100.577019,80.250587 99.153893,80.481567 97.316879,80.373268 
	C96.438416,79.361641 96.091782,78.551430 95.491425,78.037788 
	C87.514587,71.213104 81.075218,63.272476 76.940178,53.511089 
	C75.760986,50.727432 75.380142,48.767231 78.974220,47.991272 
z"/>
<path fill="#5280D5" opacity="1.000000" stroke="none" 
	d="
M141.666779,140.103500 
	C143.934402,142.072342 142.289154,145.033096 142.815674,146.720093 
	C144.251328,151.319992 147.543121,155.375793 150.310165,159.506058 
	C151.291016,160.970139 152.879715,162.026993 154.597595,163.655197 
	C155.235611,163.347961 156.474182,162.751556 157.390594,162.310257 
	C158.849731,163.988205 160.178711,165.516479 161.926270,167.095886 
	C157.152740,169.428436 151.960632,171.709885 146.274170,173.706406 
	C144.813370,170.935974 144.318787,166.671417 142.799942,166.268570 
	C135.681000,164.380402 135.530045,158.004395 133.042328,153.114929 
	C135.831024,148.852997 138.619720,144.591049 141.666779,140.103500 
z"/>
<path fill="#5382D5" opacity="1.000000" stroke="none" 
	d="
M78.819672,47.741810 
	C75.380142,48.767231 75.760986,50.727432 76.940178,53.511089 
	C81.075218,63.272476 87.514587,71.213104 95.491425,78.037788 
	C96.091782,78.551430 96.438416,79.361641 96.958397,80.354172 
	C92.577179,82.058235 88.140564,83.442116 83.341263,84.873787 
	C84.372643,77.795937 78.925034,73.641434 75.785133,68.504654 
	C75.050865,67.303436 73.986206,66.236916 72.881836,65.346115 
	C71.483871,64.218498 69.889877,63.333889 68.085510,62.151154 
	C68.360184,60.392502 68.811195,57.504757 69.113297,54.277718 
	C71.421448,51.352741 73.878510,48.767056 76.645706,46.056015 
	C77.525597,46.451225 78.095367,46.971790 78.819672,47.741810 
z"/>
<path fill="#6190E5" opacity="1.000000" stroke="none" 
	d="
M173.468216,159.331909 
	C172.527924,154.038925 169.635895,149.542267 166.567017,145.133057 
	C162.455734,139.226166 158.372147,133.298691 154.155075,127.467995 
	C153.437424,126.475739 152.038803,125.204361 151.077789,125.299858 
	C147.780045,125.627556 147.141525,123.147194 145.578186,121.090347 
	C145.066895,119.122490 144.898788,117.244476 144.781998,114.676277 
	C144.630798,113.669106 144.428299,113.352112 144.225784,113.035118 
	C144.106461,112.607536 143.987137,112.179955 144.129578,111.223091 
	C144.594650,109.796082 144.797943,108.898346 145.001221,108.000610 
	C146.193695,108.788116 148.391907,109.538780 148.422302,110.368843 
	C148.711456,118.263390 156.994888,120.276382 159.788284,126.252953 
	C161.073685,129.003128 162.236618,131.943069 164.121307,134.253494 
	C168.277969,139.349106 172.857437,144.099808 177.660675,149.327454 
	C178.704651,150.776123 179.352325,151.888580 180.000000,153.001038 
	C179.402405,153.803223 178.804810,154.605408 178.085236,155.683624 
	C176.555206,157.009674 175.147156,158.059692 173.468216,159.331909 
z"/>
<path fill="#4C7BCF" opacity="1.000000" stroke="none" 
	d="
M132.740509,153.238800 
	C135.530045,158.004395 135.681000,164.380402 142.799942,166.268570 
	C144.318787,166.671417 144.813370,170.935974 145.888184,173.706299 
	C144.239761,174.576004 142.483002,175.160889 140.275833,175.394043 
	C136.864319,174.214371 133.903198,173.386475 129.721924,172.217422 
	C128.738449,168.710251 127.363464,163.806976 125.988480,158.903687 
	C128.138550,157.056686 130.288620,155.209686 132.740509,153.238800 
z"/>
<path fill="#4875C9" opacity="1.000000" stroke="none" 
	d="
M59.282181,70.348679 
	C60.748760,76.449440 65.682739,79.429535 70.154594,82.587257 
	C72.813431,84.464752 74.562660,86.362061 74.181801,90.193077 
	C72.781670,92.118927 71.313683,93.585464 69.450516,94.696587 
	C67.737617,93.228828 66.315468,91.071747 65.120872,91.191162 
	C60.743179,91.628754 58.711395,89.443825 57.416656,85.838570 
	C56.585060,83.522949 55.758503,81.205536 54.929688,78.888924 
	C56.257797,76.052963 57.585907,73.217003 59.282181,70.348679 
z"/>
<path fill="#4775C7" opacity="1.000000" stroke="none" 
	d="
M125.632690,158.963837 
	C127.363464,163.806976 128.738449,168.710251 129.721924,172.217422 
	C133.903198,173.386475 136.864319,174.214371 139.917358,175.378754 
	C132.653839,176.085709 125.298363,176.456177 117.489449,176.375183 
	C118.135696,174.510086 119.235390,173.096451 119.810677,172.356934 
	C119.084305,170.098495 118.481453,168.224106 118.059792,166.913071 
	C114.990990,166.313766 112.019913,165.733551 109.048843,165.153336 
	C114.458199,163.110214 119.867554,161.067093 125.632690,158.963837 
z"/>
<path fill="#4171C5" opacity="1.000000" stroke="none" 
	d="
M54.679756,79.163345 
	C55.758503,81.205536 56.585060,83.522949 57.416656,85.838570 
	C58.711395,89.443825 60.743179,91.628754 65.120872,91.191162 
	C66.315468,91.071747 67.737617,93.228828 69.122421,94.753159 
	C69.189507,95.165154 69.158234,95.141441 68.841156,95.115692 
	C68.383125,95.745583 68.242165,96.401237 68.101196,97.056892 
	C68.038383,97.343864 67.949615,97.622574 67.284134,97.999863 
	C64.787750,99.068336 62.842117,100.029984 60.898907,100.990440 
	C62.018795,103.005310 62.621052,104.088867 63.223305,105.172432 
	C63.223305,105.172432 63.069309,105.196159 62.738903,105.134766 
	C61.140022,104.949547 59.871548,104.825737 59.810879,104.819817 
	C58.582596,102.943703 57.743183,101.944328 57.219879,100.800339 
	C56.280170,98.746048 55.573372,96.586586 54.688313,94.505501 
	C53.896553,92.643799 52.995716,90.828484 52.143005,88.992706 
	C52.905277,85.807724 53.667557,82.622742 54.679756,79.163345 
z"/>
<path fill="#4070C0" opacity="1.000000" stroke="none" 
	d="
M108.601837,165.114471 
	C112.019913,165.733551 114.990990,166.313766 118.059792,166.913071 
	C118.481453,168.224106 119.084305,170.098495 119.810677,172.356934 
	C119.235390,173.096451 118.135696,174.510086 117.035233,176.265900 
	C111.934731,175.436584 106.835007,174.265076 101.369873,172.560242 
	C101.015884,169.813553 101.027290,167.600204 101.038704,165.386841 
	C103.410751,165.283096 105.782791,165.179352 108.601837,165.114471 
z"/>
<path fill="#3865B7" opacity="1.000000" stroke="none" 
	d="
M56.735550,130.423279 
	C54.837521,122.886475 52.939491,115.349670 51.328888,107.195557 
	C52.241920,106.240265 52.867535,105.902283 53.493145,105.564301 
	C54.733242,109.731171 58.615135,109.805962 61.815186,110.936913 
	C61.458672,116.675133 61.102154,122.413361 60.344337,128.568710 
	C58.873878,129.464981 57.804718,129.944138 56.735550,130.423279 
z"/>
<path fill="#628ADE" opacity="1.000000" stroke="none" 
	d="
M144.994659,107.622856 
	C144.797943,108.898346 144.594650,109.796082 144.097656,110.891266 
	C138.802811,97.196419 129.857407,87.157578 115.336884,82.078468 
	C116.751740,81.594360 118.473930,81.296974 120.594963,80.999184 
	C122.216324,81.669426 123.477722,82.278954 124.651741,83.025841 
	C126.193718,84.006805 127.718857,85.030472 129.148483,86.165222 
	C129.904678,86.765450 130.432724,88.279968 131.081573,88.290550 
	C136.885544,88.385193 137.095535,94.084000 139.776413,97.124519 
	C142.209732,99.884285 143.303665,103.825020 144.994659,107.622856 
z"/>
<path fill="#406BBE" opacity="1.000000" stroke="none" 
	d="
M61.939896,110.583549 
	C58.615135,109.805962 54.733242,109.731171 53.493145,105.564301 
	C52.867535,105.902283 52.241920,106.240265 51.368587,106.762276 
	C51.403412,101.238060 51.685963,95.529823 52.055756,89.407143 
	C52.995716,90.828484 53.896553,92.643799 54.688313,94.505501 
	C55.573372,96.586586 56.280170,98.746048 57.219879,100.800339 
	C57.743183,101.944328 58.582596,102.943703 59.810879,104.819817 
	C59.871548,104.825737 61.140022,104.949547 62.816383,105.143082 
	C62.837715,106.885254 62.451160,108.557724 61.939896,110.583549 
z"/>
<path fill="#3B68B8" opacity="1.000000" stroke="none" 
	d="
M100.605980,165.281799 
	C101.027290,167.600204 101.015884,169.813553 101.009514,172.447296 
	C96.885902,171.012817 92.757248,169.157944 88.468475,166.794098 
	C88.566605,165.367203 88.824852,164.449280 89.083099,163.531372 
	C92.779816,164.079819 96.476540,164.628281 100.605980,165.281799 
z"/>
<path fill="#648EE3" opacity="1.000000" stroke="none" 
	d="
M93.051010,39.662529 
	C91.398857,40.583405 89.834053,41.421844 88.184525,41.651375 
	C87.261307,41.779842 86.197609,40.898857 85.065804,40.168091 
	C88.737946,37.726673 92.541496,35.589874 96.679657,33.388809 
	C97.014259,34.757202 97.014259,36.189869 97.014259,37.565075 
	C95.634842,38.185940 94.368889,38.755730 93.051010,39.662529 
z"/>
<path fill="#385DA9" opacity="1.000000" stroke="none" 
	d="
M56.776161,130.774368 
	C57.804718,129.944138 58.873878,129.464981 60.306355,128.972870 
	C61.218021,132.098618 61.766373,135.237320 62.314724,138.376038 
	C61.674957,138.599731 61.035191,138.823441 60.395424,139.047150 
	C59.202538,136.406586 58.009655,133.766022 56.776161,130.774368 
z"/>
<path fill="#3959AB" opacity="1.000000" stroke="none" 
	d="
M88.862816,163.298706 
	C88.824852,164.449280 88.566605,165.367203 88.169907,166.611176 
	C85.541191,165.237900 83.050919,163.538528 80.560654,161.839157 
	C80.919586,161.241333 81.278526,160.643509 81.637466,160.045685 
	C83.972488,161.052460 86.307503,162.059235 88.862816,163.298706 
z"/>
<path fill="#406BBE" opacity="1.000000" stroke="none" 
	d="
M63.543129,105.069885 
	C62.621052,104.088867 62.018795,103.005310 60.898907,100.990440 
	C62.842117,100.029984 64.787750,99.068336 67.146523,98.171173 
	C66.327431,100.479546 65.095192,102.723442 63.543129,105.069885 
z"/>
<path fill="#4875C9" opacity="1.000000" stroke="none" 
	d="
M68.351974,96.903519 
	C68.242165,96.401237 68.383125,95.745583 68.837646,95.097809 
	C68.968399,95.653839 68.785576,96.201988 68.351974,96.903519 
z"/>
<path fill="#4D7BD0" opacity="1.000000" stroke="none" 
	d="
M59.599884,70.346573 
	C59.335709,69.964294 59.216118,69.478195 59.281631,68.784882 
	C59.466740,68.577660 59.751854,68.769829 59.876999,69.135262 
	C60.002140,69.500694 60.002148,69.997139 60.002148,69.997139 
	C60.002148,69.997139 59.744461,70.242752 59.599884,70.346573 
z"/>
<path fill="#628ADE" opacity="1.000000" stroke="none" 
	d="
M144.214127,113.330994 
	C144.428299,113.352112 144.630798,113.669106 144.841476,114.278519 
	C144.633911,114.256248 144.418182,113.941559 144.214127,113.330994 
z"/>
<path fill="#6D9DF6" opacity="1.000000" stroke="none" 
	d="
M127.997894,32.003441 
	C133.038910,37.210346 138.555206,42.047432 142.979889,47.733910 
	C146.964127,52.854343 149.634430,58.979519 153.110977,64.519264 
	C155.200317,67.848541 157.817276,70.841652 160.035400,74.096069 
	C168.113586,85.948303 176.125916,97.845444 184.153687,109.731987 
	C184.616821,110.417725 185.196381,111.111343 185.383194,111.883232 
	C186.655197,117.139137 190.214188,118.639915 195.572006,118.000648 
	C195.691818,119.423180 195.384857,120.845749 194.663239,122.710968 
	C193.831558,125.101593 193.414566,127.049576 192.631134,128.993851 
	C189.566208,126.388817 186.855438,123.800064 184.173584,121.181709 
	C182.427292,119.476761 180.723068,117.728737 178.953873,115.609039 
	C178.271988,112.323929 177.247635,109.450264 177.093796,106.530739 
	C176.876221,102.401802 174.962585,99.719482 171.539658,97.778801 
	C166.787338,95.084396 163.615112,91.274025 161.284790,86.146645 
	C159.614349,82.471176 155.688950,79.884567 153.169113,76.513527 
	C150.530350,72.983429 147.180054,69.367836 146.253555,65.307503 
	C144.483658,57.551136 144.237000,49.650520 134.215714,47.375511 
	C132.198517,46.917576 130.082092,44.000881 129.286911,41.764328 
	C128.211731,38.740204 128.369263,35.277802 127.997894,32.003441 
z"/>
<path fill="#6D99F2" opacity="1.000000" stroke="none" 
	d="
M192.997559,128.997559 
	C193.414566,127.049576 193.831558,125.101593 194.623688,123.075897 
	C195.418854,123.311302 195.838913,123.624428 196.534195,123.959030 
	C196.339264,125.475510 195.869095,126.970497 194.859573,128.732071 
	C193.880707,128.999924 193.441177,129.001175 193.000824,129.001221 
	C193.000000,129.000000 192.997559,128.997559 192.997559,128.997559 
z"/>
<path fill="#6C9BF2" opacity="1.000000" stroke="none" 
	d="
M127.695343,31.871647 
	C128.369263,35.277802 128.211731,38.740204 129.286911,41.764328 
	C130.082092,44.000881 132.198517,46.917576 134.215714,47.375511 
	C144.237000,49.650520 144.483658,57.551136 146.253555,65.307503 
	C147.180054,69.367836 150.530350,72.983429 153.169113,76.513527 
	C155.688950,79.884567 159.614349,82.471176 161.284790,86.146645 
	C163.615112,91.274025 166.787338,95.084396 171.539658,97.778801 
	C174.962585,99.719482 176.876221,102.401802 177.093796,106.530739 
	C177.247635,109.450264 178.271988,112.323929 178.845505,115.828171 
	C178.583633,116.711609 178.322342,116.898949 177.623764,116.951859 
	C176.524261,116.098320 175.597031,115.398270 175.116257,114.467590 
	C173.886734,112.087494 173.223709,109.335602 171.672791,107.216393 
	C167.905396,102.068520 163.817703,97.149887 159.754272,92.225334 
	C156.007538,87.684586 152.053726,83.313896 148.339188,78.747833 
	C147.018387,77.124268 145.971619,75.221527 145.084824,73.313728 
	C143.587189,70.091827 142.753357,66.481361 140.851028,63.545830 
	C137.796249,58.831909 134.069778,54.556072 130.695084,50.044304 
	C130.012375,49.131580 129.548523,48.025909 129.124786,46.953484 
	C126.408188,40.078011 121.629601,35.169304 114.999771,31.667007 
	C114.999283,30.890127 114.998726,30.446207 114.998169,30.002289 
	C116.067024,30.001186 117.135887,30.000084 118.814590,30.262127 
	C120.614937,30.350750 121.805450,30.176226 122.995956,30.001699 
	C123.165024,30.001768 123.334091,30.001837 123.756882,30.005545 
	C125.138008,30.586075 126.265396,31.162964 127.695343,31.871647 
z"/>
<path fill="#6594E9" opacity="1.000000" stroke="none" 
	d="
M180.289520,152.861237 
	C179.352325,151.888580 178.704651,150.776123 178.029099,149.331390 
	C177.904907,148.177170 178.068985,147.192261 177.672256,146.558319 
	C173.415924,139.757080 169.136398,132.968338 164.732376,126.262100 
	C160.136917,119.264297 155.683838,112.144081 150.634521,105.482101 
	C146.343750,99.820930 142.738678,94.054298 140.218094,87.299965 
	C138.775482,83.434250 135.102768,79.948868 131.629547,77.380066 
	C122.306061,70.484390 118.277824,60.111206 112.655228,50.708622 
	C109.807236,45.945961 105.993858,41.768532 102.779350,37.211945 
	C101.887230,35.947369 101.576157,34.272877 100.996223,32.400444 
	C102.306099,31.626289 103.618263,31.238142 105.666824,30.900499 
	C107.106720,31.576694 108.103180,32.074059 108.446411,32.857574 
	C108.987434,34.092667 108.774506,35.704144 109.434204,36.832802 
	C111.748405,40.792130 114.094780,44.762844 116.800217,48.457355 
	C123.554375,57.680794 130.565918,66.715370 137.364182,75.907082 
	C140.371689,79.973419 143.087067,84.254745 145.984879,88.403694 
	C147.737961,90.913681 149.704910,93.280052 151.370987,95.844032 
	C157.419739,105.152634 162.788223,114.977242 169.558502,123.720428 
	C175.330017,131.173828 179.632446,139.459274 184.936066,147.352417 
	C184.492767,148.293991 184.139084,148.962677 183.785385,149.631348 
	C182.716599,150.661377 181.647812,151.691406 180.289520,152.861237 
z"/>
<path fill="#6797EC" opacity="1.000000" stroke="none" 
	d="
M185.025665,147.079498 
	C179.632446,139.459274 175.330017,131.173828 169.558502,123.720428 
	C162.788223,114.977242 157.419739,105.152634 151.370987,95.844032 
	C149.704910,93.280052 147.737961,90.913681 145.984879,88.403694 
	C143.087067,84.254745 140.371689,79.973419 137.364182,75.907082 
	C130.565918,66.715370 123.554375,57.680794 116.800217,48.457355 
	C114.094780,44.762844 111.748405,40.792130 109.434204,36.832802 
	C108.774506,35.704144 108.987434,34.092667 108.446411,32.857574 
	C108.103180,32.074059 107.106720,31.576694 106.019775,30.915161 
	C107.492020,30.570555 109.347687,30.261791 111.538055,29.939121 
	C112.653915,29.949272 113.435066,29.973326 114.607193,29.999834 
	C114.998726,30.446207 114.999283,30.890127 114.704147,31.815491 
	C114.386246,33.733105 113.806053,35.506321 114.435715,36.548729 
	C117.636818,41.848110 124.174591,44.902500 124.803085,52.005478 
	C124.841278,52.437103 125.869049,52.722939 126.324806,53.186337 
	C127.941650,54.830273 129.788589,56.339081 131.033752,58.236744 
	C133.068039,61.337048 134.437180,64.887070 136.570847,67.905258 
	C138.800217,71.058807 141.749557,73.695152 144.098343,76.775528 
	C145.572556,78.708916 146.340912,81.168861 147.739395,83.173958 
	C151.224091,88.170174 155.036774,92.941025 158.442291,97.988220 
	C162.682129,104.271912 166.585648,110.781387 170.743301,117.121948 
	C175.769485,124.787041 180.909729,132.377335 186.048599,140.333221 
	C186.778549,141.127823 187.460510,141.589218 188.142471,142.050598 
	C187.753296,143.020111 187.364120,143.989624 186.643372,145.433685 
	C185.883057,146.298645 185.454361,146.689072 185.025665,147.079498 
z"/>
<path fill="#6D99F2" opacity="1.000000" stroke="none" 
	d="
M188.449341,141.905975 
	C187.460510,141.589218 186.778549,141.127823 186.299713,140.120239 
	C184.767029,134.983719 183.027817,130.394669 181.296616,125.802574 
	C180.191360,122.870819 179.098038,119.934555 177.999390,117.000305 
	C178.322342,116.898949 178.583633,116.711609 178.891632,116.219147 
	C180.723068,117.728737 182.427292,119.476761 184.173584,121.181709 
	C186.855438,123.800064 189.566208,126.388817 192.631134,128.993851 
	C192.997559,128.997559 193.000000,129.000000 192.872314,129.305206 
	C192.877823,130.848419 193.011032,132.086426 193.144226,133.324432 
	C191.681564,136.136734 190.218887,138.949036 188.449341,141.905975 
z"/>
<path fill="#04156A" opacity="1.000000" stroke="none" 
	d="
M184.936066,147.352417 
	C185.454361,146.689072 185.883057,146.298645 186.552155,145.736969 
	C189.239090,148.465393 189.454605,151.245148 186.272232,154.559830 
	C185.366928,152.796585 184.734726,151.565262 183.943954,149.982635 
	C184.139084,148.962677 184.492767,148.293991 184.936066,147.352417 
z"/>
<path fill="#6D9DF6" opacity="1.000000" stroke="none" 
	d="
M193.395859,133.090485 
	C193.011032,132.086426 192.877823,130.848419 192.873138,129.306427 
	C193.441177,129.001175 193.880707,128.999924 194.649841,128.999969 
	C194.535477,130.286346 194.091492,131.571426 193.395859,133.090485 
z"/>
<path fill="#011361" opacity="1.000000" stroke="none" 
	d="
M100.999077,29.998817 
	C101.091919,29.962898 101.185677,29.928165 101.140884,29.947617 
	C101.002335,30.001799 101.000000,30.000000 100.999077,29.998817 
z"/>
<path fill="#6797EC" opacity="1.000000" stroke="none" 
	d="
M122.596970,30.000523 
	C121.805450,30.176226 120.614937,30.350750 119.215393,30.264420 
	C120.070236,30.002159 121.134102,30.000753 122.596970,30.000523 
z"/>
<path fill="#4875C9" opacity="1.000000" stroke="none" 
	d="
M60.170589,69.910461 
	C60.002148,69.997139 60.002140,69.500694 60.002705,69.252533 
	C60.115192,69.277504 60.227112,69.550644 60.170589,69.910461 
z"/>
<path fill="#6999EF" opacity="1.000000" stroke="none" 
	d="
M177.623749,116.951859 
	C179.098038,119.934555 180.191360,122.870819 181.296616,125.802574 
	C183.027817,130.394669 184.767029,134.983719 186.251724,139.787018 
	C180.909729,132.377335 175.769485,124.787041 170.743301,117.121948 
	C166.585648,110.781387 162.682129,104.271912 158.442291,97.988220 
	C155.036774,92.941025 151.224091,88.170174 147.739395,83.173958 
	C146.340912,81.168861 145.572556,78.708916 144.098343,76.775528 
	C141.749557,73.695152 138.800217,71.058807 136.570847,67.905258 
	C134.437180,64.887070 133.068039,61.337048 131.033752,58.236744 
	C129.788589,56.339081 127.941650,54.830273 126.324806,53.186337 
	C125.869049,52.722939 124.841278,52.437103 124.803085,52.005478 
	C124.174591,44.902500 117.636818,41.848110 114.435715,36.548729 
	C113.806053,35.506321 114.386246,33.733105 114.704071,32.148453 
	C121.629601,35.169304 126.408188,40.078011 129.124786,46.953484 
	C129.548523,48.025909 130.012375,49.131580 130.695084,50.044304 
	C134.069778,54.556072 137.796249,58.831909 140.851028,63.545830 
	C142.753357,66.481361 143.587189,70.091827 145.084824,73.313728 
	C145.971619,75.221527 147.018387,77.124268 148.339188,78.747833 
	C152.053726,83.313896 156.007538,87.684586 159.754272,92.225334 
	C163.817703,97.149887 167.905396,102.068520 171.672791,107.216393 
	C173.223709,109.335602 173.886734,112.087494 175.116257,114.467590 
	C175.597031,115.398270 176.524261,116.098320 177.623749,116.951859 
z"/>
</svg>